<?xml version="1.0" encoding="UTF-8" standalone="no"?>
<!DOCTYPE svg PUBLIC "-//W3C//DTD SVG 1.1//EN"
 "http://www.w3.org/Graphics/SVG/1.1/DTD/svg11.dtd">
<!-- Generated by graphviz version 14.1.3 (20260303.0454)
 -->
<!-- Title: caruca_v2_widescreen Pages: 1 -->
<svg width="2506pt" height="1307pt"
 viewBox="0.00 0.00 2506.00 1307.00" xmlns="http://www.w3.org/2000/svg" xmlns:xlink="http://www.w3.org/1999/xlink">
<g id="graph0" class="graph" transform="scale(2.77778 2.77778) rotate(0) translate(18 456.02)">
<title>caruca_v2_widescreen</title>
<polygon fill="white" stroke="none" points="-18,14.4 -18,-456.02 884,-456.02 884,14.4 -18,14.4"/>
<g id="clust1" class="cluster">
<title>cluster_v1</title>
<path fill="white" stroke="#5b8c5a" stroke-width="1.8" d="M20,-17C20,-17 242,-17 242,-17 248,-17 254,-23 254,-29 254,-29 254,-406.75 254,-406.75 254,-412.75 248,-418.75 242,-418.75 242,-418.75 20,-418.75 20,-418.75 14,-418.75 8,-412.75 8,-406.75 8,-406.75 8,-29 8,-29 8,-23 14,-17 20,-17"/>
<text xml:space="preserve" text-anchor="start" x="68" y="-399.6" font-family="Helvetica,sans-Serif" font-weight="bold" font-size="17.00">Caruca today</text>
<text xml:space="preserve" text-anchor="start" x="48.88" y="-387.35" font-family="Helvetica,sans-Serif" font-size="12.00">existing, reused unchanged</text>
</g>
<g id="clust2" class="cluster">
<title>cluster_step1</title>
<path fill="white" stroke="#4a6fa5" stroke-width="1.8" d="M274,-17C274,-17 512,-17 512,-17 518,-17 524,-23 524,-29 524,-29 524,-406.75 524,-406.75 524,-412.75 518,-418.75 512,-418.75 512,-418.75 274,-418.75 274,-418.75 268,-418.75 262,-412.75 262,-406.75 262,-406.75 262,-29 262,-29 262,-23 268,-17 274,-17"/>
<text xml:space="preserve" text-anchor="start" x="302.25" y="-399.6" font-family="Helvetica,sans-Serif" font-weight="bold" font-size="17.00">Step one: replicate</text>
<text xml:space="preserve" text-anchor="start" x="338.25" y="-387.35" font-family="Helvetica,sans-Serif" font-size="12.00">what we build first</text>
</g>
<g id="clust3" class="cluster">
<title>cluster_step2</title>
<path fill="white" stroke="#4a6fa5" stroke-width="1.8" stroke-dasharray="5,2" d="M544,-8C544,-8 846,-8 846,-8 852,-8 858,-14 858,-20 858,-20 858,-421.62 858,-421.62 858,-427.62 852,-433.62 846,-433.62 846,-433.62 544,-433.62 544,-433.62 538,-433.62 532,-427.62 532,-421.62 532,-421.62 532,-20 532,-20 532,-14 538,-8 544,-8"/>
<text xml:space="preserve" text-anchor="start" x="612.88" y="-414.47" font-family="Helvetica,sans-Serif" font-weight="bold" font-size="17.00">Step two: extend</text>
<text xml:space="preserve" text-anchor="start" x="653.38" y="-402.22" font-family="Helvetica,sans-Serif" font-size="12.00">later, not now</text>
</g>
<!-- V1Spec -->
<g id="node1" class="node">
<title>V1Spec</title>
<path fill="#edf3eb" stroke="#5b8c5a" stroke-width="1.4" d="M225.65,-365.75C225.65,-365.75 36.35,-365.75 36.35,-365.75 30.35,-365.75 24.35,-359.75 24.35,-353.75 24.35,-353.75 24.35,-323.03 24.35,-323.03 24.35,-317.03 30.35,-311.03 36.35,-311.03 36.35,-311.03 225.65,-311.03 225.65,-311.03 231.65,-311.03 237.65,-317.03 237.65,-323.03 237.65,-323.03 237.65,-353.75 237.65,-353.75 237.65,-359.75 231.65,-365.75 225.65,-365.75"/>
<text xml:space="preserve" text-anchor="middle" x="131" y="-342.14" font-family="Helvetica,sans-Serif" font-size="15.00">manual page → AI writes</text>
<text xml:space="preserve" text-anchor="middle" x="131" y="-324.14" font-family="Helvetica,sans-Serif" font-size="15.00">command description</text>
</g>
<!-- V1Run -->
<g id="node2" class="node">
<title>V1Run</title>
<path fill="#edf3eb" stroke="#5b8c5a" stroke-width="1.4" d="M209.15,-260.16C209.15,-260.16 52.85,-260.16 52.85,-260.16 46.85,-260.16 40.85,-254.16 40.85,-248.16 40.85,-248.16 40.85,-217.44 40.85,-217.44 40.85,-211.44 46.85,-205.44 52.85,-205.44 52.85,-205.44 209.15,-205.44 209.15,-205.44 215.15,-205.44 221.15,-211.44 221.15,-217.44 221.15,-217.44 221.15,-248.16 221.15,-248.16 221.15,-254.16 215.15,-260.16 209.15,-260.16"/>
<text xml:space="preserve" text-anchor="middle" x="131" y="-236.55" font-family="Helvetica,sans-Serif" font-size="15.00">build test cases,</text>
<text xml:space="preserve" text-anchor="middle" x="131" y="-218.55" font-family="Helvetica,sans-Serif" font-size="15.00">run them and watch</text>
</g>
<!-- V1Spec&#45;&gt;V1Run -->
<g id="edge1" class="edge">
<title>V1Spec&#45;&gt;V1Run</title>
<path fill="none" stroke="#5b8c5a" stroke-width="1.2" d="M131,-310.44C131,-297.97 131,-282.99 131,-269.59"/>
<polygon fill="#5b8c5a" stroke="#5b8c5a" stroke-width="1.2" points="133.63,-269.93 131,-262.43 128.38,-269.93 133.63,-269.93"/>
</g>
<!-- S1LLM -->
<g id="node5" class="node">
<title>S1LLM</title>
<path fill="#eaf0f8" stroke="#4a6fa5" stroke-width="1.4" d="M496.27,-365.75C496.27,-365.75 289.73,-365.75 289.73,-365.75 283.73,-365.75 277.73,-359.75 277.73,-353.75 277.73,-353.75 277.73,-323.03 277.73,-323.03 277.73,-317.03 283.73,-311.03 289.73,-311.03 289.73,-311.03 496.27,-311.03 496.27,-311.03 502.27,-311.03 508.27,-317.03 508.27,-323.03 508.27,-323.03 508.27,-353.75 508.27,-353.75 508.27,-359.75 502.27,-365.75 496.27,-365.75"/>
<text xml:space="preserve" text-anchor="middle" x="393" y="-342.14" font-family="Helvetica,sans-Serif" font-size="15.00">manual page → one simple</text>
<text xml:space="preserve" text-anchor="middle" x="393" y="-324.14" font-family="Helvetica,sans-Serif" font-size="15.00">prompt → description</text>
</g>
<!-- V1Spec&#45;&gt;S1LLM -->
<!-- V1Out -->
<g id="node3" class="node">
<title>V1Out</title>
<path fill="#dcebda" stroke="#5b8c5a" stroke-width="1.4" d="M217.4,-161.89C217.4,-164.32 178.67,-166.29 131,-166.29 83.33,-166.29 44.6,-164.32 44.6,-161.89 44.6,-161.89 44.6,-122.27 44.6,-122.27 44.6,-119.84 83.33,-117.87 131,-117.87 178.67,-117.87 217.4,-119.84 217.4,-122.27 217.4,-122.27 217.4,-161.89 217.4,-161.89"/>
<path fill="none" stroke="#5b8c5a" stroke-width="1.4" d="M217.4,-161.89C217.4,-159.46 178.67,-157.49 131,-157.49 83.33,-157.49 44.6,-159.46 44.6,-161.89"/>
<text xml:space="preserve" text-anchor="middle" x="131" y="-137.98" font-family="Helvetica,sans-Serif" font-size="13.00">recorded behaviour</text>
</g>
<!-- V1Run&#45;&gt;V1Out -->
<g id="edge2" class="edge">
<title>V1Run&#45;&gt;V1Out</title>
<path fill="none" stroke="#5b8c5a" stroke-width="1.2" d="M131,-205.18C131,-196.07 131,-185.76 131,-176.2"/>
<polygon fill="#5b8c5a" stroke="#5b8c5a" stroke-width="1.2" points="133.63,-176.28 131,-168.78 128.38,-176.28 133.63,-176.28"/>
</g>
<!-- V1Ann -->
<g id="node4" class="node">
<title>V1Ann</title>
<path fill="#edf3eb" stroke="#5b8c5a" stroke-width="1.4" d="M219.65,-69.72C219.65,-69.72 42.35,-69.72 42.35,-69.72 36.35,-69.72 30.35,-63.72 30.35,-57.72 30.35,-57.72 30.35,-45 30.35,-45 30.35,-39 36.35,-33 42.35,-33 42.35,-33 219.65,-33 219.65,-33 225.65,-33 231.65,-39 231.65,-45 231.65,-45 231.65,-57.72 231.65,-57.72 231.65,-63.72 225.65,-69.72 219.65,-69.72"/>
<text xml:space="preserve" text-anchor="middle" x="131" y="-46.11" font-family="Helvetica,sans-Serif" font-size="15.00">turn into specifications</text>
</g>
<!-- V1Out&#45;&gt;V1Ann -->
<g id="edge3" class="edge">
<title>V1Out&#45;&gt;V1Ann</title>
<path fill="none" stroke="#5b8c5a" stroke-width="1.2" d="M131,-117.3C131,-105.64 131,-91.54 131,-79.46"/>
<polygon fill="#5b8c5a" stroke="#5b8c5a" stroke-width="1.2" points="133.63,-79.6 131,-72.1 128.38,-79.6 133.63,-79.6"/>
</g>
<!-- S1Cmp -->
<g id="node6" class="node">
<title>S1Cmp</title>
<path fill="#eaf0f8" stroke="#4a6fa5" stroke-width="1.4" d="M480.9,-260.16C480.9,-260.16 305.1,-260.16 305.1,-260.16 299.1,-260.16 293.1,-254.16 293.1,-248.16 293.1,-248.16 293.1,-217.44 293.1,-217.44 293.1,-211.44 299.1,-205.44 305.1,-205.44 305.1,-205.44 480.9,-205.44 480.9,-205.44 486.9,-205.44 492.9,-211.44 492.9,-217.44 492.9,-217.44 492.9,-248.16 492.9,-248.16 492.9,-254.16 486.9,-260.16 480.9,-260.16"/>
<text xml:space="preserve" text-anchor="middle" x="393" y="-236.55" font-family="Helvetica,sans-Serif" font-size="15.00">compare the two,</text>
<text xml:space="preserve" text-anchor="middle" x="393" y="-218.55" font-family="Helvetica,sans-Serif" font-size="15.00">measure cost and time</text>
</g>
<!-- S1LLM&#45;&gt;S1Cmp -->
<g id="edge4" class="edge">
<title>S1LLM&#45;&gt;S1Cmp</title>
<path fill="none" stroke="#4a6fa5" stroke-width="1.2" d="M393,-310.44C393,-297.97 393,-282.99 393,-269.59"/>
<polygon fill="#4a6fa5" stroke="#4a6fa5" stroke-width="1.2" points="395.63,-269.93 393,-262.43 390.38,-269.93 395.63,-269.93"/>
</g>
<!-- S2Safe -->
<g id="node9" class="node">
<title>S2Safe</title>
<polygon fill="#fbf0dc" stroke="#c08a2e" stroke-width="1.4" stroke-dasharray="5,2" points="842.21,-338.39 768.61,-380.62 621.39,-380.62 547.79,-338.39 621.39,-296.16 768.61,-296.16 842.21,-338.39"/>
<text xml:space="preserve" text-anchor="middle" x="695" y="-342.54" font-family="Helvetica,sans-Serif" font-size="13.00">a safe place to run</text>
<text xml:space="preserve" text-anchor="middle" x="695" y="-326.04" font-family="Helvetica,sans-Serif" font-size="13.00">destructive commands</text>
</g>
<!-- S1LLM&#45;&gt;S2Safe -->
<!-- S1Rep -->
<g id="node7" class="node">
<title>S1Rep</title>
<path fill="#eaf0f8" stroke="#4a6fa5" stroke-width="1.4" d="M472.65,-169.44C472.65,-169.44 313.35,-169.44 313.35,-169.44 307.35,-169.44 301.35,-163.44 301.35,-157.44 301.35,-157.44 301.35,-126.72 301.35,-126.72 301.35,-120.72 307.35,-114.72 313.35,-114.72 313.35,-114.72 472.65,-114.72 472.65,-114.72 478.65,-114.72 484.65,-120.72 484.65,-126.72 484.65,-126.72 484.65,-157.44 484.65,-157.44 484.65,-163.44 478.65,-169.44 472.65,-169.44"/>
<text xml:space="preserve" text-anchor="middle" x="393" y="-145.83" font-family="Helvetica,sans-Serif" font-size="15.00">repeat runs to check</text>
<text xml:space="preserve" text-anchor="middle" x="393" y="-127.83" font-family="Helvetica,sans-Serif" font-size="15.00">the answer is stable</text>
</g>
<!-- S1Cmp&#45;&gt;S1Rep -->
<g id="edge5" class="edge">
<title>S1Cmp&#45;&gt;S1Rep</title>
<path fill="none" stroke="#4a6fa5" stroke-width="1.2" d="M393,-205.18C393,-197.01 393,-187.88 393,-179.18"/>
<polygon fill="#4a6fa5" stroke="#4a6fa5" stroke-width="1.2" points="395.63,-179.3 393,-171.8 390.38,-179.3 395.63,-179.3"/>
</g>
<!-- S1Out -->
<g id="node8" class="node">
<title>S1Out</title>
<polygon fill="#d9e4f3" stroke="#4a6fa5" stroke-width="1.4" points="479.4,-69.72 300.6,-69.72 300.6,-33 485.4,-33 485.4,-63.72 479.4,-69.72"/>
<polyline fill="none" stroke="#4a6fa5" stroke-width="1.4" points="479.4,-69.72 479.4,-63.72"/>
<polyline fill="none" stroke="#4a6fa5" stroke-width="1.4" points="485.4,-63.72 479.4,-63.72"/>
<text xml:space="preserve" text-anchor="middle" x="393" y="-46.11" font-family="Helvetica,sans-Serif" font-size="15.00">head&#45;to&#45;head results</text>
</g>
<!-- S1Rep&#45;&gt;S1Out -->
<g id="edge6" class="edge">
<title>S1Rep&#45;&gt;S1Out</title>
<path fill="none" stroke="#4a6fa5" stroke-width="1.2" d="M393,-114.46C393,-103.41 393,-90.59 393,-79.49"/>
<polygon fill="#4a6fa5" stroke="#4a6fa5" stroke-width="1.2" points="395.63,-79.57 393,-72.07 390.38,-79.57 395.63,-79.57"/>
</g>
<!-- S2Rich -->
<g id="node10" class="node">
<title>S2Rich</title>
<polygon fill="#eaf0f8" stroke="#4a6fa5" stroke-width="1.4" stroke-dasharray="5,2" points="800.15,-260.16 589.85,-260.16 589.85,-205.44 800.15,-205.44 800.15,-260.16"/>
<text xml:space="preserve" text-anchor="middle" x="695" y="-236.55" font-family="Helvetica,sans-Serif" font-size="15.00">richer test cases: links,</text>
<text xml:space="preserve" text-anchor="middle" x="695" y="-218.55" font-family="Helvetica,sans-Serif" font-size="15.00">permissions, empty files</text>
</g>
<!-- S2Safe&#45;&gt;S2Rich -->
<g id="edge7" class="edge">
<title>S2Safe&#45;&gt;S2Rich</title>
<path fill="none" stroke="#4a6fa5" stroke-width="1.2" stroke-dasharray="5,2" d="M695,-295.55C695,-286.99 695,-278.04 695,-269.7"/>
<polygon fill="#4a6fa5" stroke="#4a6fa5" stroke-width="1.2" points="697.63,-269.92 695,-262.42 692.38,-269.92 697.63,-269.92"/>
</g>
<!-- S2Poor -->
<g id="node11" class="node">
<title>S2Poor</title>
<polygon fill="#eaf0f8" stroke="#4a6fa5" stroke-width="1.4" stroke-dasharray="5,2" points="788.15,-169.44 601.85,-169.44 601.85,-114.72 788.15,-114.72 788.15,-169.44"/>
<text xml:space="preserve" text-anchor="middle" x="695" y="-145.83" font-family="Helvetica,sans-Serif" font-size="15.00">commands with little</text>
<text xml:space="preserve" text-anchor="middle" x="695" y="-127.83" font-family="Helvetica,sans-Serif" font-size="15.00">or no documentation</text>
</g>
<!-- S2Rich&#45;&gt;S2Poor -->
<g id="edge8" class="edge">
<title>S2Rich&#45;&gt;S2Poor</title>
<path fill="none" stroke="#4a6fa5" stroke-width="1.2" stroke-dasharray="5,2" d="M695,-205.18C695,-197.01 695,-187.88 695,-179.18"/>
<polygon fill="#4a6fa5" stroke="#4a6fa5" stroke-width="1.2" points="697.63,-179.3 695,-171.8 692.38,-179.3 697.63,-179.3"/>
</g>
<!-- S2Out -->
<g id="node12" class="node">
<title>S2Out</title>
<polygon fill="#eaf0f8" stroke="#4a6fa5" stroke-width="1.4" stroke-dasharray="5,2" points="775.4,-78.72 608.6,-78.72 608.6,-24 781.4,-24 781.4,-72.72 775.4,-78.72"/>
<polyline fill="none" stroke="#4a6fa5" stroke-width="1.4" stroke-dasharray="5,2" points="775.4,-78.72 775.4,-72.72"/>
<polyline fill="none" stroke="#4a6fa5" stroke-width="1.4" stroke-dasharray="5,2" points="781.4,-72.72 775.4,-72.72"/>
<text xml:space="preserve" text-anchor="middle" x="695" y="-55.11" font-family="Helvetica,sans-Serif" font-size="15.00">broader coverage</text>
<text xml:space="preserve" text-anchor="middle" x="695" y="-37.11" font-family="Helvetica,sans-Serif" font-size="15.00">than before</text>
</g>
<!-- S2Poor&#45;&gt;S2Out -->
<g id="edge9" class="edge">
<title>S2Poor&#45;&gt;S2Out</title>
<path fill="none" stroke="#4a6fa5" stroke-width="1.2" stroke-dasharray="5,2" d="M695,-114.46C695,-106.29 695,-97.16 695,-88.46"/>
<polygon fill="#4a6fa5" stroke="#4a6fa5" stroke-width="1.2" points="697.63,-88.58 695,-81.08 692.38,-88.58 697.63,-88.58"/>
</g>
</g>
</svg>
